# xmcd
#
# Track frame offsets: 
#        150
#        17968
#        39029
#        57307
#        73654
#        93507
#        110961
#        130319
#        148673
#        170943
#        186360
#        199137
#
# Disc length: 2874 seconds
#
# Revision: 1
# Processed by: cddbd v1.5.2PL0 Copyright (c) Steve Scherf et al.
# Submitted via: ExactAudioCopy v0.95b4
#
DISCID=bb0b380c
DTITLE=Anthony Hamilton - What I'm Feelin'
DYEAR=2016
DGENRE=R&B
TTITLE0=Save Me
TTITLE1=Ain't No Shame
TTITLE2=What I'm Feelin' (Feat. The Hamiltones)
TTITLE3=Amen
TTITLE4=I Want You
TTITLE5=Never Letting Go
TTITLE6=Grateful
TTITLE7=Walk In My Shoes
TTITLE8=Take You Home
TTITLE9=Still
TTITLE10=Ever Seen Heaven
TTITLE11=Love Is An Angry Thing
EXTD=
EXTT0=
EXTT1=
EXTT2=
EXTT3=
EXTT4=
EXTT5=
EXTT6=
EXTT7=
EXTT8=
EXTT9=
EXTT10=
EXTT11=
PLAYORDER=
